<svg width="15" height="14" viewBox="0 0 15 14" fill="none" xmlns="http://www.w3.org/2000/svg">
<path d="M13.1885 9.91524C13.1885 9.9724 13.1769 10.029 13.1547 10.0827C13.1104 10.1895 13.0252 10.2746 12.9184 10.3196C12.8648 10.3417 12.8082 10.3533 12.751 10.3533H10.3278C10.0863 10.3533 9.89035 10.1573 9.89035 9.91581C9.89035 9.67431 10.0863 9.47831 10.3278 9.47831H11.6946L8.18702 5.97076C8.12985 5.91359 8.03769 5.91359 7.98052 5.97076L6.47201 7.47922C6.0736 7.87764 5.42669 7.87764 5.02827 7.47922L1.94069 4.39166C1.76977 4.22074 1.76977 3.94364 1.94069 3.77272C2.1116 3.6018 2.38869 3.6018 2.55961 3.77272L5.64719 6.86028C5.70436 6.91745 5.79652 6.91745 5.85368 6.86028L7.36218 5.35182C7.7606 4.9534 8.40752 4.9534 8.80594 5.35182L12.3135 8.85937V7.49261C12.3135 7.25111 12.5095 7.05511 12.751 7.05511C12.9925 7.05511 13.1885 7.25111 13.1885 7.49261V9.91524Z" fill="#E2464A"/>
</svg>
