<svg width="14" height="14" viewBox="0 0 14 14" fill="none" xmlns="http://www.w3.org/2000/svg">
<path d="M12.6879 4.08203V6.50523C12.6879 6.74673 12.4919 6.94273 12.2504 6.94273C12.0089 6.94273 11.8129 6.74673 11.8129 6.50523V5.13847L8.30535 8.64602C7.90694 9.04443 7.26002 9.04443 6.8616 8.64602L5.3531 7.13755C5.29593 7.08039 5.20377 7.08039 5.14661 7.13755L2.05902 10.2251C1.97385 10.3103 1.86185 10.3534 1.74985 10.3534C1.63785 10.3534 1.52585 10.3109 1.44069 10.2251C1.26977 10.0542 1.26977 9.7771 1.44069 9.60618L4.52827 6.51862C4.92669 6.1202 5.5736 6.1202 5.97202 6.51862L7.48052 8.02708C7.53769 8.08425 7.62985 8.08425 7.68702 8.02708L11.1946 4.51953H9.82785C9.58635 4.51953 9.39035 4.32353 9.39035 4.08203C9.39035 3.84053 9.58635 3.64453 9.82785 3.64453H12.2504C12.3076 3.64453 12.3642 3.65626 12.4179 3.67843C12.5246 3.72276 12.6098 3.80793 12.6541 3.91526C12.6763 3.96835 12.6879 4.02486 12.6879 4.08203Z" fill="#2FA766"/>
</svg>
