<svg width="18" height="18" viewBox="0 0 18 18" fill="none" xmlns="http://www.w3.org/2000/svg">
<path d="M17.7 9.75H10.05C9.88 9.75 9.75 9.88005 9.75 10.05V17.7C9.75 17.87 9.88 18 10.05 18H15C17 18 18 17 18 15V10.05C18 9.88005 17.87 9.75 17.7 9.75ZM15 15.5H12C11.59 15.5 11.25 15.16 11.25 14.75C11.25 14.34 11.59 14 12 14H15C15.41 14 15.75 14.34 15.75 14.75C15.75 15.16 15.41 15.5 15 15.5ZM15 13H12C11.59 13 11.25 12.66 11.25 12.25C11.25 11.84 11.59 11.5 12 11.5H15C15.41 11.5 15.75 11.84 15.75 12.25C15.75 12.66 15.41 13 15 13ZM7.95 0H3C1 0 0 1 0 3V7.94995C0 8.11995 0.130003 8.25 0.300003 8.25H7.95C8.12 8.25 8.25 8.11995 8.25 7.94995V0.300049C8.25 0.130049 8.12 0 7.95 0ZM6 5.25H3C2.59 5.25 2.25 4.91 2.25 4.5C2.25 4.09 2.59 3.75 3 3.75H6C6.41 3.75 6.75 4.09 6.75 4.5C6.75 4.91 6.41 5.25 6 5.25ZM15 0H10.05C9.88 0 9.75 0.130049 9.75 0.300049V7.94995C9.75 8.11995 9.88 8.25 10.05 8.25H17.7C17.87 8.25 18 8.11995 18 7.94995V3C18 1 17 0 15 0ZM15 5.25H14.25V6C14.25 6.41 13.91 6.75 13.5 6.75C13.09 6.75 12.75 6.41 12.75 6V5.25H12C11.59 5.25 11.25 4.91 11.25 4.5C11.25 4.09 11.59 3.75 12 3.75H12.75V3C12.75 2.59 13.09 2.25 13.5 2.25C13.91 2.25 14.25 2.59 14.25 3V3.75H15C15.41 3.75 15.75 4.09 15.75 4.5C15.75 4.91 15.41 5.25 15 5.25ZM7.95 9.75H0.300003C0.130003 9.75 0 9.88005 0 10.05V15C0 17 1 18 3 18H7.95C8.12 18 8.25 17.87 8.25 17.7V10.05C8.25 9.88005 8.12 9.75 7.95 9.75ZM6.28 14.22C6.57 14.51 6.57 14.99 6.28 15.28C6.13 15.43 5.94 15.5 5.75 15.5C5.56 15.5 5.37 15.43 5.22 15.28L4.5 14.5601L3.78 15.28C3.63 15.43 3.44 15.5 3.25 15.5C3.06 15.5 2.87 15.43 2.72 15.28C2.43 14.99 2.43 14.51 2.72 14.22L3.44 13.5L2.72 12.78C2.43 12.49 2.43 12.01 2.72 11.72C3.01 11.43 3.49 11.43 3.78 11.72L4.5 12.4399L5.22 11.72C5.51 11.43 5.99 11.43 6.28 11.72C6.57 12.01 6.57 12.49 6.28 12.78L5.56 13.5L6.28 14.22Z" fill="white"/>
</svg>
