<!DOCTYPE svg PUBLIC "-//W3C//DTD SVG 1.1//EN" "http://www.w3.org/Graphics/SVG/1.1/DTD/svg11.dtd">

<!-- Uploaded to: SVG Repo, www.svgrepo.com, Transformed by: SVG Repo Mixer Tools -->
<svg fill="#fff" width="64px" height="64px" viewBox="0 0 24 24" xmlns="http://www.w3.org/2000/svg" data-name="Layer 1" stroke="#fff">

<g id="SVGRepo_bgCarrier" stroke-width="0"/>

<g id="SVGRepo_tracerCarrier" stroke-linecap="round" stroke-linejoin="round"/>

<g id="SVGRepo_iconCarrier">

<path d="M21,20H4v-.54l5-5,3.8,3.8a1,1,0,0,0,1.41,0l7.5-7.5a1,1,0,0,0,0-1.42,1,1,0,0,0-1.41,0l-6.8,6.8-3.79-3.8a1,1,0,0,0-1.41,0L4,16.63V11.46l5-5,2.8,2.8a1,1,0,0,0,1.41,0L18,4.47l2.19,2.19a1,1,0,0,0,1.41-1.42L18.69,2.35a1,1,0,0,0-1.41,0l-4.8,4.8L9.69,4.35a1,1,0,0,0-1.41,0L4,8.63V3A1,1,0,0,0,2,3V21a1,1,0,0,0,1,1H21a1,1,0,0,0,0-2Z"/>

</g>

</svg>