<svg width="13" height="13" viewBox="0 0 13 13" fill="none" xmlns="http://www.w3.org/2000/svg">
<path d="M5.76562 2.6177C5.76562 2.32833 6.0002 2.09375 6.28958 2.09375H10.4812C10.7705 2.09375 11.0051 2.32833 11.0051 2.6177C11.0051 2.90707 10.7705 3.14165 10.4812 3.14165H6.28958C6.0002 3.14165 5.76562 2.90707 5.76562 2.6177ZM5.76562 4.71351C5.76562 4.42414 6.0002 4.18956 6.28958 4.18956H10.4812C10.7705 4.18956 11.0051 4.42414 11.0051 4.71351C11.0051 5.00288 10.7705 5.23746 10.4812 5.23746H6.28958C6.0002 5.23746 5.76562 5.00288 5.76562 4.71351ZM5.76562 7.85722C5.76562 7.56784 6.0002 7.33327 6.28958 7.33327H10.4812C10.7705 7.33327 11.0051 7.56784 11.0051 7.85722C11.0051 8.1466 10.7705 8.38118 10.4812 8.38118H6.28958C6.0002 8.38118 5.76562 8.1466 5.76562 7.85722ZM5.76562 9.95303C5.76562 9.66365 6.0002 9.42908 6.28958 9.42908H10.4812C10.7705 9.42908 11.0051 9.66365 11.0051 9.95303C11.0051 10.2424 10.7705 10.477 10.4812 10.477H6.28958C6.0002 10.477 5.76562 10.2424 5.76562 9.95303Z" fill="#FCFCFD"/>
<path fill-rule="evenodd" clip-rule="evenodd" d="M1.57422 3.126C1.57422 2.55591 2.03638 2.09375 2.60647 2.09375H3.68568C4.25578 2.09375 4.71793 2.55591 4.71793 3.126V9.44415C4.71793 10.0143 4.25578 10.4764 3.68568 10.4764H2.60647C2.03638 10.4764 1.57422 10.0143 1.57422 9.44415V3.126ZM2.62212 9.43111V3.14165H3.67003V9.43111H2.62212Z" fill="#B5383B"/>
</svg>
