<svg width="12" height="12" viewBox="0 0 12 12" fill="none" xmlns="http://www.w3.org/2000/svg">
<path d="M5.5 2.5C5.5 2.22386 5.72385 2 6 2H10C10.2761 2 10.5 2.22386 10.5 2.5C10.5 2.77614 10.2761 3 10 3H6C5.72385 3 5.5 2.77614 5.5 2.5ZM5.5 4.5C5.5 4.22386 5.72385 4 6 4H10C10.2761 4 10.5 4.22386 10.5 4.5C10.5 4.77614 10.2761 5 10 5H6C5.72385 5 5.5 4.77614 5.5 4.5ZM5.5 7.5C5.5 7.22385 5.72385 7 6 7H10C10.2761 7 10.5 7.22385 10.5 7.5C10.5 7.77615 10.2761 8 10 8H6C5.72385 8 5.5 7.77615 5.5 7.5ZM5.5 9.5C5.5 9.22385 5.72385 9 6 9H10C10.2761 9 10.5 9.22385 10.5 9.5C10.5 9.77615 10.2761 10 10 10H6C5.72385 10 5.5 9.77615 5.5 9.5Z" fill="#FCFCFD"/>
<path fill-rule="evenodd" clip-rule="evenodd" d="M1.5 7.98114C1.5 7.43709 1.94103 6.99609 2.48507 6.99609H3.51494C4.05897 6.99609 4.5 7.43709 4.5 7.98114V9.01104C4.5 9.55504 4.05897 9.99609 3.51494 9.99609H2.48507C1.94103 9.99609 1.5 9.55504 1.5 9.01104V7.98114ZM2.5 8.99609V7.99609H3.5V8.99609H2.5Z" fill="#2FA766"/>
<path fill-rule="evenodd" clip-rule="evenodd" d="M1.5 2.98506C1.5 2.44103 1.94103 2 2.48507 2H3.51494C4.05897 2 4.5 2.44103 4.5 2.98506V4.01494C4.5 4.55898 4.05897 5 3.51494 5H2.48507C1.94103 5 1.5 4.55898 1.5 4.01494V2.98506ZM2.5 4V3H3.5V4H2.5Z" fill="#B5383B"/>
</svg>
