<svg width="197" height="102" viewBox="0 0 197 102" fill="none" xmlns="http://www.w3.org/2000/svg">
<path fill-rule="evenodd" clip-rule="evenodd" d="M100.5 0C101.881 0 103 1.11929 103 2.5C103 3.88071 101.881 5 100.5 5C99.1193 5 98 3.88071 98 2.5C98 1.11929 99.1193 0 100.5 0ZM155 22.5C155 21.1193 156.119 20 157.5 20C158.881 20 160 21.1193 160 22.5C160 23.8807 158.881 25 157.5 25C156.119 25 155 23.8807 155 22.5ZM176 46.5C176 45.1193 177.119 44 178.5 44C179.881 44 181 45.1193 181 46.5C181 47.8807 179.881 49 178.5 49C177.119 49 176 47.8807 176 46.5ZM188 72.5C188 71.1193 189.119 70 190.5 70C191.881 70 193 71.1193 193 72.5C193 73.8807 191.881 75 190.5 75C189.119 75 188 73.8807 188 72.5ZM192 99.5C192 98.1193 193.119 97 194.5 97C195.881 97 197 98.1193 197 99.5C197 100.881 195.881 102 194.5 102C193.119 102 192 100.881 192 99.5ZM2.5 97C3.88071 97 5 98.1193 5 99.5C5 100.881 3.88071 102 2.5 102C1.11929 102 0 100.881 0 99.5C0 98.1193 1.11929 97 2.5 97ZM6.5 70C7.88071 70 9 71.1193 9 72.5C9 73.8807 7.88071 75 6.5 75C5.11929 75 4 73.8807 4 72.5C4 71.1193 5.11929 70 6.5 70ZM127 7.5C127 6.11929 128.119 5 129.5 5C130.881 5 132 6.11929 132 7.5C132 8.88071 130.881 10 129.5 10C128.119 10 127 8.88071 127 7.5ZM20.5 44C21.8807 44 23 45.1193 23 46.5C23 47.8807 21.8807 49 20.5 49C19.1193 49 18 47.8807 18 46.5C18 45.1193 19.1193 44 20.5 44ZM67 7.5C67 6.11929 68.1193 5 69.5 5C70.8807 5 72 6.11929 72 7.5C72 8.88071 70.8807 10 69.5 10C68.1193 10 67 8.88071 67 7.5ZM41.5 20C42.8807 20 44 21.1193 44 22.5C44 23.8807 42.8807 25 41.5 25C40.1193 25 39 23.8807 39 22.5C39 21.1193 40.1193 20 41.5 20Z" fill="url(#paint0_linear_8574_44635)"/>
<defs>
<linearGradient id="paint0_linear_8574_44635" x1="-0.883801" y1="51.1542" x2="197.875" y2="51.1542" gradientUnits="userSpaceOnUse">
<stop stop-color="#B5383B"/>
<stop offset="0.5" stop-color="#F6BA47"/>
<stop offset="1" stop-color="#268752"/>
</linearGradient>
</defs>
</svg>
