<svg width="24" height="24" viewBox="0 0 24 24" fill="none" xmlns="http://www.w3.org/2000/svg">
<path d="M8.40039 7.2002H14.1822C14.8766 7.2002 15.5425 7.45305 16.0335 7.90314C16.5245 8.35323 16.8004 8.96368 16.8004 9.60019C16.8004 10.2367 16.5245 10.8472 16.0335 11.2973C15.5425 11.7473 14.8766 12.0002 14.1822 12.0002C14.8766 12.0002 15.5425 12.2531 16.0335 12.7031C16.5245 13.1532 16.8004 13.7637 16.8004 14.4002C16.8004 15.0367 16.5245 15.6472 16.0335 16.0973C15.5425 16.5473 14.8766 16.8002 14.1822 16.8002H8.40039" stroke="white" stroke-width="1.5" stroke-linecap="round" stroke-linejoin="round"/>
<path d="M9.59961 7.2002V16.8002" stroke="white" stroke-width="1.5" stroke-linecap="round" stroke-linejoin="round"/>
<path d="M9.59961 12H14.3996" stroke="white" stroke-width="1.5" stroke-linecap="round" stroke-linejoin="round"/>
<path d="M12 4.7998V7.1998" stroke="white" stroke-width="1.5" stroke-linecap="round" stroke-linejoin="round"/>
<path d="M12 16.7998V19.1998" stroke="white" stroke-width="1.5" stroke-linecap="round" stroke-linejoin="round"/>
</svg>
