<svg width="24" height="24" viewBox="0 0 24 24" fill="none" xmlns="http://www.w3.org/2000/svg">
<path fill-rule="evenodd" clip-rule="evenodd" d="M14.077 5.07999C12.8626 4.80943 11.6088 4.96479 10.4789 5.51872C9.35148 6.07143 8.4077 6.99055 7.7517 8.1423C7.51593 8.55625 7.32034 8.99481 7.16651 9.45021H5.7002C5.28598 9.45021 4.9502 9.78599 4.9502 10.2002C4.9502 10.6144 5.28598 10.9502 5.7002 10.9502H6.81943C6.77399 11.2967 6.75098 11.6477 6.75098 12.0002C6.75098 12.3527 6.77399 12.7037 6.81943 13.0502H5.7002C5.28598 13.0502 4.9502 13.386 4.9502 13.8002C4.9502 14.2144 5.28598 14.5502 5.7002 14.5502H7.16651C7.32034 15.0056 7.51593 15.4442 7.7517 15.8581C8.4077 17.0099 9.35148 17.929 10.4789 18.4817C11.6088 19.0356 12.8626 19.191 14.077 18.9204C15.2896 18.6503 16.3888 17.9724 17.2447 16.994C17.5174 16.6823 17.4858 16.2085 17.174 15.9357C16.8623 15.663 16.3884 15.6946 16.1157 16.0064C15.4526 16.7644 14.6271 17.2611 13.7508 17.4563C12.8763 17.6512 11.9699 17.5421 11.1392 17.1348C10.3061 16.7264 9.5761 16.0304 9.05511 15.1157C8.95135 14.9336 8.85704 14.7447 8.77252 14.5502H12.9002C13.3144 14.5502 13.6502 14.2144 13.6502 13.8002C13.6502 13.386 13.3144 13.0502 12.9002 13.0502H8.33525C8.27955 12.7064 8.25098 12.3549 8.25098 12.0002C8.25098 11.6455 8.27955 11.294 8.33525 10.9502H12.9002C13.3144 10.9502 13.6502 10.6144 13.6502 10.2002C13.6502 9.78599 13.3144 9.45021 12.9002 9.45021H8.77252C8.85704 9.25572 8.95135 9.06685 9.05511 8.88468C9.5761 7.96997 10.3061 7.27402 11.1392 6.86557C11.9699 6.45834 12.8763 6.34925 13.7508 6.54409C14.6271 6.73933 15.4526 7.23599 16.1157 7.99403C16.3884 8.30578 16.8623 8.33742 17.174 8.06469C17.4858 7.79196 17.5174 7.31814 17.2447 7.00639C16.3888 6.02802 15.2896 5.35014 14.077 5.07999Z" fill="white"/>
</svg>
