<svg width="24" height="24" viewBox="0 0 24 24" fill="none" xmlns="http://www.w3.org/2000/svg">
<path d="M17 9.54042C17 9.56762 16.9992 10.5948 16.9977 10.6216C16.9545 11.39 16.3005 12 15.5 12C14.6995 12 14.0455 11.39 14.0023 10.6216C14.0008 10.5948 14 5.02721 14 5" stroke="white" stroke-width="1.5" stroke-linecap="round" stroke-linejoin="round"/>
<path d="M5 12.8393C5 12.8981 5.00153 13.9624 5.00455 14.0205C5.09103 15.6813 6.39907 17 8 17C9.60093 17 10.909 15.6813 10.9954 14.0205C10.9985 13.9624 11 5.05881 11 5" stroke="white" stroke-width="1.5" stroke-linecap="round" stroke-linejoin="round"/>
<path d="M20 12C20 16.4183 16.4183 20 12 20" stroke="white" stroke-width="1.5" stroke-linecap="round" stroke-linejoin="round"/>
<path d="M16 15H16.01" stroke="white" stroke-width="1.5" stroke-linecap="round" stroke-linejoin="round"/>
<path d="M14 15H14.01" stroke="white" stroke-width="1.5" stroke-linecap="round" stroke-linejoin="round"/>
</svg>
