<svg width="24" height="24" viewBox="0 0 24 24" fill="none" xmlns="http://www.w3.org/2000/svg">
<path fill-rule="evenodd" clip-rule="evenodd" d="M12.7505 4.7998C12.7505 4.38559 12.4148 4.0498 12.0005 4.0498C11.5863 4.0498 11.2505 4.38559 11.2505 4.7998V6.46593C10.5264 6.51301 9.77554 6.67143 9.16294 7.05299C8.51668 7.45552 8.0582 8.08874 7.95418 8.96453C7.87151 9.66049 7.94812 10.275 8.19365 10.805C8.44009 11.337 8.82882 11.7235 9.27001 12.0076C10.1065 12.5462 11.2249 12.7657 12.1401 12.9453L12.1484 12.947L12.2302 12.963C12.6841 13.052 13.1 13.1336 13.4788 13.236C13.8818 13.3449 14.1919 13.4647 14.4164 13.6061C14.63 13.7407 14.7417 13.8785 14.7989 14.0307C14.8588 14.1901 14.8922 14.4542 14.7839 14.8966C14.7022 15.2301 14.4745 15.4933 14.0453 15.6964C13.5996 15.9074 12.9876 16.0237 12.2871 16.0459C10.8678 16.0908 9.37632 15.7451 8.75021 15.4151C8.38376 15.222 7.93015 15.3625 7.73704 15.7289C7.54393 16.0954 7.68444 16.549 8.05088 16.7421C8.76249 17.1171 9.98781 17.4249 11.2505 17.5196V19.1998C11.2505 19.614 11.5863 19.9498 12.0005 19.9498C12.4148 19.9498 12.7505 19.614 12.7505 19.1998V17.5221C13.4269 17.4679 14.1041 17.3282 14.6871 17.0522C15.4064 16.7117 16.0241 16.1385 16.2409 15.2533C16.3976 14.6133 16.3993 14.0251 16.203 13.5029C16.004 12.9737 15.6351 12.601 15.2158 12.3369C14.8075 12.0797 14.3324 11.9128 13.8702 11.7879C13.4381 11.6711 12.9727 11.5799 12.5333 11.4939L12.4373 11.4751C11.448 11.2809 10.6335 11.1015 10.082 10.7464C9.82792 10.5828 9.65802 10.3975 9.55469 10.1745C9.45045 9.94949 9.38617 9.62586 9.4437 9.14145C9.49048 8.74762 9.6701 8.50427 9.95598 8.32621C10.2746 8.12775 10.7486 8.00147 11.3504 7.96261C12.552 7.88503 13.98 8.17226 14.8754 8.47344C15.268 8.60548 15.6933 8.39426 15.8254 8.00166C15.9574 7.60906 15.7462 7.18375 15.3536 7.0517C14.678 6.82446 13.7337 6.59959 12.7505 6.50131V4.7998Z" fill="white"/>
</svg>
