<svg width="24" height="24" viewBox="0 0 24 24" fill="none" xmlns="http://www.w3.org/2000/svg">
<path d="M19.339 2.50609L12.7738 1.34813C11.4818 1.12113 10.4168 1.29211 9.60684 1.85911C8.79684 2.42611 8.27183 3.36808 8.04483 4.66008L7.93692 5.27409L4.65786 5.85112C2.06386 6.31212 0.889003 7.99408 1.35 10.5871L2.89395 19.3401C3.11795 20.6321 3.6399 21.5741 4.4479 22.1411C5.0259 22.5461 5.73389 22.7501 6.56289 22.7501C6.89489 22.7501 7.2478 22.7171 7.6188 22.6511L14.1898 21.4941C16.0568 21.1561 16.8979 20.2541 17.2719 19.3851C17.3199 19.3861 17.375 19.3991 17.422 19.3991C19.422 19.3991 20.716 18.2171 21.11 15.9901L22.653 7.23613C23.108 4.64313 21.933 2.96309 19.339 2.50609ZM13.9259 20.018L7.35782 21.1741C6.46882 21.3301 5.78096 21.2441 5.30996 20.9131C4.83996 20.5831 4.52498 19.9681 4.37198 19.0811L2.82681 10.3241C2.51081 8.54008 3.13685 7.64413 4.91885 7.32713L7.65884 6.84508L6.50088 13.4141C6.04388 16.0081 7.21989 17.6881 9.81289 18.1451L15.663 19.1761C15.385 19.5051 14.8819 19.844 13.9259 20.018ZM21.175 6.97612L19.632 15.7301C19.317 17.5141 18.4228 18.1411 16.6378 17.8261L10.0729 16.6681C8.2899 16.3541 7.66296 15.4591 7.97696 13.6751L9.5209 4.92113C9.6769 4.03513 9.99595 3.41812 10.4669 3.08812C10.7879 2.86412 11.208 2.75108 11.724 2.75108C11.966 2.75108 12.2298 2.77609 12.5138 2.82609L19.079 3.98411C20.862 4.29711 21.489 5.19212 21.175 6.97612ZM18.5968 11.0351C18.5338 11.3991 18.217 11.6551 17.86 11.6551C17.817 11.6551 17.7729 11.6521 17.7289 11.6441L11.164 10.4861C10.756 10.4141 10.4828 10.0251 10.5558 9.61711C10.6268 9.20911 11.02 8.93708 11.424 9.00908L17.9889 10.1671C18.3959 10.2381 18.6688 10.6261 18.5968 11.0351ZM19.297 7.77312C19.234 8.13712 18.917 8.39311 18.56 8.39311C18.517 8.39311 18.4729 8.39012 18.4289 8.38212L11.8639 7.2241C11.4559 7.1521 11.183 6.76309 11.256 6.35509C11.327 5.94809 11.7199 5.67412 12.1239 5.74712L18.6889 6.90514C19.0969 6.97714 19.369 7.36512 19.297 7.77312ZM15.5539 13.8961C15.4909 14.2601 15.1738 14.5161 14.8168 14.5161C14.7738 14.5161 14.7299 14.5131 14.6859 14.5051L10.5819 13.7811C10.1739 13.7091 9.90103 13.3201 9.97403 12.9121C10.045 12.5051 10.4359 12.2311 10.8419 12.3041L14.946 13.0281C15.354 13.0991 15.6259 13.4881 15.5539 13.8961Z" fill="#fff"/>
</svg>
