<svg width="60" height="45" viewBox="0 0 60 45" fill="none" xmlns="http://www.w3.org/2000/svg">
<path fill-rule="evenodd" clip-rule="evenodd" d="M0 0H60V45H0V0Z" fill="#E30A17"/>
<path fill-rule="evenodd" clip-rule="evenodd" d="M38.1562 23.203C38.1562 29.4093 33.0375 34.4437 26.7188 34.4437C20.4 34.4437 15.2812 29.4093 15.2812 23.1937C15.2812 16.978 20.4 11.9624 26.7188 11.9624C33.0375 11.9624 38.1562 16.9968 38.1562 23.203Z" fill="white"/>
<path fill-rule="evenodd" clip-rule="evenodd" d="M38.7184 23.203C38.7184 28.1718 34.6309 32.1937 29.5777 32.1937C24.5246 32.1937 20.4277 28.1624 20.4277 23.1937C20.4277 18.2249 24.5246 14.2124 29.5777 14.2124C34.6309 14.2124 38.7277 18.2343 38.7277 23.203H38.7184Z" fill="#E30A17"/>
<path fill-rule="evenodd" clip-rule="evenodd" d="M40.3777 17.9532L40.284 22.1063L36.4121 23.1563L40.2371 24.5157L40.1434 28.3313L42.6277 25.3501L46.3965 26.6626L44.2215 23.4657L46.8746 20.2876L42.7965 21.4126L40.3777 17.9438V17.9532Z" fill="white"/>
</svg>
