<svg style="fill:#1AA089;" width="28" height="28" viewBox="0 0 28 28" xmlns="http://www.w3.org/2000/svg">
                                                    <rect width="28" height="28" rx="14"></rect>
                                                    <path d="M15.3333 18C18.2789 18 20.6667 15.6122 20.6667 12.6667C20.6667 9.72115 18.2789 7.33334 15.3333 7.33334C12.3878 7.33334 10 9.72115 10 12.6667C10 15.6122 12.3878 18 15.3333 18Z" stroke="white" stroke-linecap="round"></path>
                                                    <path d="M8.06709 13.3333C7.60236 14.071 7.3335 14.9445 7.3335 15.8808C7.3335 18.524 9.47627 20.6667 12.1195 20.6667C13.0557 20.6667 13.9292 20.3979 14.6668 19.9332" stroke="white" stroke-linecap="round"></path>
                                                    <path d="M14 12.6667H16.3333M14 12.6667V10.3333H15.3333M14 12.6667V15H15.3333M16.3333 12.6667C16.8856 12.6667 17.3333 12.1443 17.3333 11.5C17.3333 10.8557 16.8856 10.3333 16.3333 10.3333H15.3333M16.3333 12.6667C16.8856 12.6667 17.3333 13.189 17.3333 13.8333C17.3333 14.4777 16.8856 15 16.3333 15H15.3333M15.3333 15V15.6667M15.3333 10.3333V9.66667" stroke="white" stroke-linecap="round"></path>
</svg>