<svg width="24" height="24" viewBox="0 0 24 24" fill="none" xmlns="http://www.w3.org/2000/svg">
<path d="M21.147 4.26511C16.22 3.28011 14.514 2.4203 12.355 1.3303C12.144 1.2253 11.8641 1.23821 11.6531 1.34421C9.46308 2.43021 7.73205 3.28911 2.85205 4.26511C2.50105 4.33511 2.24902 4.64322 2.24902 5.00022V10.8891C2.24902 19.1231 10.173 22.1821 11.762 22.7121C11.839 22.7381 11.919 22.7512 11.999 22.7512C12.079 22.7512 12.1591 22.7381 12.2361 22.7121C13.8251 22.1821 21.749 19.1231 21.749 10.8891V5.00022C21.75 4.64322 21.498 4.33411 21.147 4.26511ZM20.25 10.8891C20.25 17.7541 13.832 20.5493 12 21.2063C10.168 20.5493 3.75 17.7531 3.75 10.8891V5.61326C8.135 4.69726 9.93789 3.86633 12.0149 2.83933C13.9679 3.82033 15.827 4.68726 20.25 5.61326V10.8891ZM7.42603 12.8613C7.54703 13.1323 7.81606 13.3061 8.11206 13.3061H10.1389V17.0002C10.1389 17.3112 10.3301 17.5892 10.6201 17.7002C10.7071 17.7342 10.7989 17.7502 10.8889 17.7502C11.0969 17.7502 11.301 17.6632 11.447 17.5022L16.447 11.9463C16.645 11.7263 16.695 11.4091 16.575 11.1391C16.454 10.8681 16.1849 10.6943 15.8889 10.6943H13.8621V7.00022C13.8621 6.68922 13.6711 6.41127 13.3811 6.30027C13.0911 6.18827 12.7629 6.26727 12.5549 6.49827L7.55493 12.0542C7.35493 12.2742 7.30603 12.5903 7.42603 12.8613ZM12.3611 8.9553V11.4453C12.3611 11.8593 12.6971 12.1953 13.1111 12.1953H14.2051L11.6389 15.0461V12.5561C11.6389 12.1421 11.3029 11.8061 10.8889 11.8061H9.79492L12.3611 8.9553Z" fill="white"/>
</svg>
