<svg width="24" height="24" viewBox="0 0 24 24" fill="none" xmlns="http://www.w3.org/2000/svg">
<path d="M21.4774 9.08673L14.0653 2.99078C12.8682 2.00878 11.1333 2.00778 9.93634 2.99078L2.52436 9.08575C2.20536 9.34875 2.15833 9.82078 2.42133 10.1418C2.68433 10.4628 3.15736 10.5068 3.47736 10.2448L4.25031 9.60882V18.0018C4.25031 20.4198 5.58231 21.7518 8.00031 21.7518H16.0003C18.4183 21.7518 19.7503 20.4198 19.7503 18.0018V9.60882L20.5233 10.2448C20.6633 10.3598 20.8323 10.4157 21.0003 10.4157C21.2163 10.4157 21.4313 10.3228 21.5793 10.1428C21.8433 9.82176 21.7964 9.34973 21.4774 9.08673ZM13.7503 20.2518H10.2503V16.5018C10.2503 15.5368 11.0353 14.7518 12.0003 14.7518C12.9653 14.7518 13.7503 15.5368 13.7503 16.5018V20.2518ZM18.2503 18.0018C18.2503 19.5788 17.5773 20.2518 16.0003 20.2518H15.2503V16.5018C15.2503 14.7098 13.7923 13.2518 12.0003 13.2518C10.2083 13.2518 8.75031 14.7098 8.75031 16.5018V20.2518H8.00031C6.42331 20.2518 5.75031 19.5788 5.75031 18.0018V8.37579L10.8893 4.15082C11.5323 3.62182 12.4694 3.62182 13.1124 4.15082L18.2513 8.37677V18.0018H18.2503Z" fill="#fff"/>
</svg>
