<svg width="24" height="24" viewBox="0 0 24 24" fill="none" xmlns="http://www.w3.org/2000/svg">
<path d="M3.00146 11.855C2.97446 11.855 2.94651 11.854 2.91851 11.851C2.50651 11.806 2.20951 11.435 2.25451 11.024C2.61751 7.70705 4.61949 4.84996 7.60949 3.38196C7.84249 3.26796 8.11748 3.28195 8.33648 3.41895C8.55648 3.55595 8.69048 3.79703 8.69048 4.05603V7.10596C8.69048 7.51996 8.35448 7.85596 7.94048 7.85596C7.52648 7.85596 7.19048 7.51996 7.19048 7.10596V5.36499C5.26748 6.70299 4.00645 8.80401 3.74645 11.187C3.70445 11.571 3.37846 11.855 3.00146 11.855ZM21.0824 12.26C20.6694 12.216 20.3005 12.512 20.2555 12.924C19.9955 15.3069 18.7345 17.4079 16.8115 18.7469V17.006C16.8115 16.592 16.4755 16.256 16.0615 16.256C15.6475 16.256 15.3115 16.592 15.3115 17.006V20.056C15.3115 20.315 15.4455 20.556 15.6655 20.693C15.7865 20.768 15.9235 20.806 16.0615 20.806C16.1745 20.806 16.2875 20.781 16.3925 20.729C19.3835 19.261 21.3855 16.404 21.7475 13.087C21.7915 12.675 21.4934 12.305 21.0824 12.26ZM10.2505 8.5V4.5C10.2505 3.091 11.0915 2.25 12.5005 2.25H18.5005C19.9095 2.25 20.7505 3.091 20.7505 4.5V8.5C20.7505 9.909 19.9095 10.75 18.5005 10.75H12.5005C11.0915 10.75 10.2505 9.909 10.2505 8.5ZM19.2505 8.5V6.25H11.7505V8.5C11.7505 9.089 11.9115 9.25 12.5005 9.25H18.5005C19.0895 9.25 19.2505 9.089 19.2505 8.5ZM11.7505 4.5V4.75H19.2505V4.5C19.2505 3.911 19.0895 3.75 18.5005 3.75H12.5005C11.9115 3.75 11.7505 3.911 11.7505 4.5ZM14.5005 7.25H13.0005C12.5865 7.25 12.2505 7.586 12.2505 8C12.2505 8.414 12.5865 8.75 13.0005 8.75H14.5005C14.9145 8.75 15.2505 8.414 15.2505 8C15.2505 7.586 14.9145 7.25 14.5005 7.25ZM13.7505 15.5V19.5C13.7505 20.909 12.9095 21.75 11.5005 21.75H5.50048C4.09148 21.75 3.25048 20.909 3.25048 19.5V15.5C3.25048 14.091 4.09148 13.25 5.50048 13.25H11.5005C12.9095 13.25 13.7505 14.091 13.7505 15.5ZM4.75048 15.5V15.75H12.2505V15.5C12.2505 14.911 12.0895 14.75 11.5005 14.75H5.50048C4.91148 14.75 4.75048 14.911 4.75048 15.5ZM12.2505 19.5V17.25H4.75048V19.5C4.75048 20.089 4.91148 20.25 5.50048 20.25H11.5005C12.0895 20.25 12.2505 20.089 12.2505 19.5ZM7.50048 18.25H6.00048C5.58648 18.25 5.25048 18.586 5.25048 19C5.25048 19.414 5.58648 19.75 6.00048 19.75H7.50048C7.91448 19.75 8.25048 19.414 8.25048 19C8.25048 18.586 7.91448 18.25 7.50048 18.25Z" fill="white"/>
</svg>
