<svg width="204" height="43" viewBox="0 0 204 43" fill="none" xmlns="http://www.w3.org/2000/svg">
<path d="M61 7.5L55.847 14.388C54.8624 15.7013 53.5749 16.7694 52.089 17.5058C50.603 18.2422 48.9604 18.6261 47.2943 18.6265H38.4916C36.8245 18.6264 35.1808 19.0102 33.6939 19.7468C32.2069 20.4834 30.9186 21.552 29.9333 22.866L21.0791 34.7023C20.215 35.8597 18.4028 35.737 17.714 34.4684L13.7109 27.1408L25.2414 11.7425C26.2256 10.4284 27.5129 9.35955 28.9988 8.62246C30.4848 7.88536 32.1276 7.50082 33.794 7.5H61Z" fill="#1A80E6"/>
<path d="M39.6149 21.1278H47.9053L42.7508 28.0144C41.7664 29.3279 40.4791 30.3963 38.9933 31.133C37.5074 31.8697 35.8648 32.2538 34.1987 32.2544H25.9093L31.0628 25.3673C32.0473 24.0539 33.3346 22.9857 34.8204 22.2491C36.3063 21.5125 37.9488 21.1284 39.6149 21.1278Z" fill="#1A80E6"/>
<path d="M21.1417 13.2807L12.4695 24.8597L12.4472 24.815C12.3104 24.5478 12.1737 24.292 12.0314 24.0526L12.0141 24.0302C9.20706 19.4346 4.26455 20.6629 0.899385 22.8565C0.386986 23.1903 -0.228096 22.6002 0.0850367 22.0885L2.38575 18.3219C3.32689 16.7845 4.65994 15.512 6.25475 14.6284C7.84955 13.7448 9.65159 13.2805 11.4849 13.2807H21.1417Z" fill="#1A80E6"/>
<path d="M73.616 31.288C72.48 31.288 71.456 31.112 70.544 30.76C69.632 30.392 68.856 29.856 68.216 29.152C67.576 28.432 67.08 27.544 66.728 26.488C66.376 25.416 66.2 24.168 66.2 22.744C66.2 21.336 66.376 20.088 66.728 19C67.08 17.896 67.576 16.976 68.216 16.24C68.856 15.488 69.632 14.92 70.544 14.536C71.456 14.152 72.48 13.96 73.616 13.96C75.168 13.96 76.448 14.28 77.456 14.92C78.464 15.544 79.272 16.536 79.88 17.896L76.736 19.528C76.512 18.824 76.16 18.264 75.68 17.848C75.216 17.416 74.528 17.2 73.616 17.2C72.544 17.2 71.68 17.552 71.024 18.256C70.384 18.944 70.064 19.952 70.064 21.28V23.968C70.064 25.296 70.384 26.312 71.024 27.016C71.68 27.704 72.544 28.048 73.616 28.048C74.512 28.048 75.224 27.808 75.752 27.328C76.296 26.832 76.696 26.24 76.952 25.552L79.928 27.28C79.304 28.56 78.48 29.552 77.456 30.256C76.448 30.944 75.168 31.288 73.616 31.288ZM82.2888 31V18.4H85.8408V21.136H85.9608C86.0248 20.784 86.1368 20.448 86.2968 20.128C86.4568 19.792 86.6648 19.496 86.9208 19.24C87.1928 18.984 87.5128 18.784 87.8808 18.64C88.2488 18.48 88.6808 18.4 89.1768 18.4H89.8008V21.712H88.9128C87.8728 21.712 87.0968 21.848 86.5848 22.12C86.0888 22.392 85.8408 22.896 85.8408 23.632V31H82.2888ZM99.86 18.4H103.172L98.324 32.944C98.004 33.92 97.548 34.64 96.956 35.104C96.38 35.568 95.548 35.8 94.46 35.8H92.252V33.04H94.628L95.06 31.648L90.644 18.4H94.172L96.02 24.28L96.932 27.928H97.076L98.012 24.28L99.86 18.4ZM104.976 18.4H108.528V20.512H108.648C108.824 19.808 109.224 19.232 109.848 18.784C110.488 18.336 111.216 18.112 112.032 18.112C113.632 18.112 114.84 18.672 115.656 19.792C116.472 20.912 116.88 22.544 116.88 24.688C116.88 26.832 116.472 28.472 115.656 29.608C114.84 30.728 113.632 31.288 112.032 31.288C111.616 31.288 111.224 31.224 110.856 31.096C110.488 30.984 110.152 30.824 109.848 30.616C109.56 30.392 109.312 30.136 109.104 29.848C108.896 29.544 108.744 29.224 108.648 28.888H108.528V35.8H104.976V18.4ZM110.856 28.408C111.528 28.408 112.08 28.176 112.512 27.712C112.96 27.232 113.184 26.592 113.184 25.792V23.608C113.184 22.808 112.96 22.176 112.512 21.712C112.08 21.232 111.528 20.992 110.856 20.992C110.184 20.992 109.624 21.16 109.176 21.496C108.744 21.816 108.528 22.264 108.528 22.84V26.56C108.528 27.136 108.744 27.592 109.176 27.928C109.624 28.248 110.184 28.408 110.856 28.408ZM123.853 31C122.621 31 121.685 30.688 121.045 30.064C120.421 29.44 120.109 28.528 120.109 27.328V21.16H118.333V18.4H119.221C119.701 18.4 120.029 18.288 120.205 18.064C120.381 17.824 120.469 17.488 120.469 17.056V14.992H123.661V18.4H126.157V21.16H123.661V28.24H125.965V31H123.853ZM133.643 31.288C132.715 31.288 131.883 31.136 131.147 30.832C130.427 30.528 129.811 30.088 129.299 29.512C128.803 28.936 128.419 28.24 128.147 27.424C127.875 26.608 127.739 25.696 127.739 24.688C127.739 23.68 127.875 22.768 128.147 21.952C128.419 21.136 128.803 20.448 129.299 19.888C129.811 19.312 130.427 18.872 131.147 18.568C131.883 18.264 132.715 18.112 133.643 18.112C134.571 18.112 135.395 18.264 136.115 18.568C136.851 18.872 137.467 19.312 137.963 19.888C138.475 20.448 138.867 21.136 139.139 21.952C139.411 22.768 139.547 23.68 139.547 24.688C139.547 25.696 139.411 26.608 139.139 27.424C138.867 28.24 138.475 28.936 137.963 29.512C137.467 30.088 136.851 30.528 136.115 30.832C135.395 31.136 134.571 31.288 133.643 31.288ZM133.643 28.48C134.347 28.48 134.891 28.264 135.275 27.832C135.659 27.4 135.851 26.784 135.851 25.984V23.416C135.851 22.616 135.659 22 135.275 21.568C134.891 21.136 134.347 20.92 133.643 20.92C132.939 20.92 132.395 21.136 132.011 21.568C131.627 22 131.435 22.616 131.435 23.416V25.984C131.435 26.784 131.627 27.4 132.011 27.832C132.395 28.264 132.939 28.48 133.643 28.48ZM145.314 31L139.914 14.248H143.61L146.106 22.288L147.426 27.544H147.498L148.77 22.288L151.266 14.248H154.842L149.394 31H145.314ZM161.256 31.288C160.296 31.288 159.44 31.136 158.688 30.832C157.936 30.512 157.296 30.072 156.768 29.512C156.256 28.936 155.864 28.24 155.592 27.424C155.336 26.608 155.208 25.696 155.208 24.688C155.208 23.696 155.336 22.8 155.592 22C155.848 21.184 156.224 20.488 156.72 19.912C157.232 19.336 157.856 18.896 158.592 18.592C159.328 18.272 160.168 18.112 161.112 18.112C162.152 18.112 163.04 18.288 163.776 18.64C164.528 18.992 165.136 19.464 165.6 20.056C166.08 20.648 166.424 21.336 166.632 22.12C166.856 22.888 166.968 23.696 166.968 24.544V25.6H158.88V25.792C158.88 26.624 159.104 27.288 159.552 27.784C160 28.264 160.704 28.504 161.664 28.504C162.4 28.504 163 28.36 163.464 28.072C163.928 27.768 164.36 27.408 164.76 26.992L166.536 29.2C165.976 29.856 165.24 30.368 164.328 30.736C163.432 31.104 162.408 31.288 161.256 31.288ZM161.184 20.728C160.464 20.728 159.896 20.968 159.48 21.448C159.08 21.912 158.88 22.536 158.88 23.32V23.512H163.296V23.296C163.296 22.528 163.12 21.912 162.768 21.448C162.432 20.968 161.904 20.728 161.184 20.728ZM169.476 31V18.4H173.028V21.136H173.148C173.212 20.784 173.324 20.448 173.484 20.128C173.644 19.792 173.852 19.496 174.108 19.24C174.38 18.984 174.7 18.784 175.068 18.64C175.436 18.48 175.868 18.4 176.364 18.4H176.988V21.712H176.1C175.06 21.712 174.284 21.848 173.772 22.12C173.276 22.392 173.028 22.896 173.028 23.632V31H169.476ZM183.451 31.288C182.235 31.288 181.211 31.096 180.379 30.712C179.547 30.312 178.803 29.752 178.147 29.032L180.235 26.92C180.683 27.416 181.179 27.808 181.723 28.096C182.267 28.384 182.883 28.528 183.571 28.528C184.275 28.528 184.763 28.424 185.035 28.216C185.307 27.992 185.443 27.696 185.443 27.328C185.443 26.736 185.019 26.384 184.171 26.272L182.803 26.104C179.971 25.752 178.555 24.456 178.555 22.216C178.555 21.608 178.667 21.056 178.891 20.56C179.131 20.048 179.459 19.616 179.875 19.264C180.307 18.896 180.819 18.616 181.411 18.424C182.019 18.216 182.699 18.112 183.451 18.112C184.107 18.112 184.683 18.16 185.179 18.256C185.691 18.336 186.139 18.464 186.523 18.64C186.923 18.8 187.283 19.008 187.603 19.264C187.939 19.504 188.267 19.776 188.587 20.08L186.547 22.168C186.147 21.768 185.691 21.456 185.179 21.232C184.683 20.992 184.171 20.872 183.643 20.872C183.035 20.872 182.603 20.968 182.347 21.16C182.091 21.352 181.963 21.608 181.963 21.928C181.963 22.264 182.051 22.528 182.227 22.72C182.419 22.896 182.771 23.024 183.283 23.104L184.699 23.296C187.467 23.664 188.851 24.928 188.851 27.088C188.851 27.696 188.723 28.256 188.467 28.768C188.211 29.28 187.843 29.728 187.363 30.112C186.899 30.48 186.331 30.768 185.659 30.976C185.003 31.184 184.267 31.288 183.451 31.288ZM196.529 31.288C195.569 31.288 194.713 31.136 193.961 30.832C193.209 30.512 192.569 30.072 192.041 29.512C191.529 28.936 191.137 28.24 190.865 27.424C190.609 26.608 190.481 25.696 190.481 24.688C190.481 23.696 190.609 22.8 190.865 22C191.121 21.184 191.497 20.488 191.993 19.912C192.505 19.336 193.129 18.896 193.865 18.592C194.601 18.272 195.441 18.112 196.385 18.112C197.425 18.112 198.313 18.288 199.049 18.64C199.801 18.992 200.409 19.464 200.873 20.056C201.353 20.648 201.697 21.336 201.905 22.12C202.129 22.888 202.241 23.696 202.241 24.544V25.6H194.153V25.792C194.153 26.624 194.377 27.288 194.825 27.784C195.273 28.264 195.977 28.504 196.937 28.504C197.673 28.504 198.273 28.36 198.737 28.072C199.201 27.768 199.633 27.408 200.033 26.992L201.809 29.2C201.249 29.856 200.513 30.368 199.601 30.736C198.705 31.104 197.681 31.288 196.529 31.288ZM196.457 20.728C195.737 20.728 195.169 20.968 194.753 21.448C194.353 21.912 194.153 22.536 194.153 23.32V23.512H198.569V23.296C198.569 22.528 198.393 21.912 198.041 21.448C197.705 20.968 197.177 20.728 196.457 20.728Z" fill="#1A80E6"/>
</svg>
