<svg width="62" height="28" viewBox="0 0 62 28" fill="none" xmlns="http://www.w3.org/2000/svg">
<path d="M61.5 0L56.347 6.888C55.3624 8.2013 54.0749 9.26943 52.589 10.0058C51.103 10.7422 49.4604 11.1261 47.7943 11.1265H38.9916C37.3245 11.1264 35.6808 11.5102 34.1939 12.2468C32.7069 12.9834 31.4186 14.052 30.4333 15.366L21.5791 27.2023C20.715 28.3597 18.9028 28.237 18.214 26.9684L14.2109 19.6408L25.7414 4.24248C26.7256 2.92845 28.0129 1.85955 29.4988 1.12246C30.9848 0.385363 32.6276 0.000817429 34.294 0H61.5Z" fill="#1A80E6"/>
<path d="M40.1149 13.6278H48.4053L43.2508 20.5144C42.2664 21.8279 40.9791 22.8963 39.4933 23.633C38.0074 24.3697 36.3648 24.7538 34.6987 24.7544H26.4093L31.5628 17.8673C32.5473 16.5539 33.8346 15.4857 35.3204 14.7491C36.8063 14.0125 38.4488 13.6284 40.1149 13.6278Z" fill="#1A80E6"/>
<path d="M21.6417 5.78071L12.9695 17.3597L12.9472 17.315C12.8104 17.0478 12.6737 16.792 12.5314 16.5526L12.5141 16.5302C9.70706 11.9346 4.76455 13.1629 1.39939 15.3565C0.886986 15.6903 0.271904 15.1002 0.585037 14.5885L2.88575 10.8219C3.82689 9.28455 5.15994 8.01195 6.75475 7.12838C8.34955 6.24481 10.1516 5.78047 11.9849 5.78071H21.6417Z" fill="#1A80E6"/>
</svg>
